<?xml version="1.0" encoding="UTF-8" standalone="no"?>
<svg
   height="128px"
   viewBox="0 0 128 128"
   width="128px"
   version="1.1"
   id="svg25"
   sodipodi:docname="org.counterstats.svg"
   inkscape:version="1.4.2 (ebf0e940d0, 2025-05-08)"
   xmlns:inkscape="http://www.inkscape.org/namespaces/inkscape"
   xmlns:sodipodi="http://sodipodi.sourceforge.net/DTD/sodipodi-0.dtd"
   xmlns="http://www.w3.org/2000/svg"
   xmlns:svg="http://www.w3.org/2000/svg">
  <defs
     id="defs25">
    <inkscape:path-effect
       effect="powerclip"
       message=""
       id="path-effect31"
       is_visible="true"
       lpeversion="1"
       inverse="true"
       flatten="false"
       hide_clip="false" />
    <mask
       maskUnits="userSpaceOnUse"
       id="mask29">
      <rect
         style="fill:#e4bd4c;fill-opacity:1;stroke-width:0.982432"
         id="rect29"
         width="24.981001"
         height="28.6984"
         x="52.705853"
         y="40.807102" />
    </mask>
    <filter
       id="mask-powermask-path-effect31_inverse"
       inkscape:label="filtermask-powermask-path-effect31"
       style="color-interpolation-filters:sRGB"
       height="100"
       width="100"
       x="-50"
       y="-50">
      <feColorMatrix
         id="mask-powermask-path-effect31_primitive1"
         values="1"
         type="saturate"
         result="fbSourceGraphic" />
      <feColorMatrix
         id="mask-powermask-path-effect31_primitive2"
         values="-1 0 0 0 1 0 -1 0 0 1 0 0 -1 0 1 0 0 0 1 0 "
         in="fbSourceGraphic" />
    </filter>
    <clipPath
       clipPathUnits="userSpaceOnUse"
       id="clipPath31">
      <rect
         style="display:none;fill:#c0cff8;fill-opacity:1;stroke-width:0.925568"
         id="rect31"
         width="19.243155"
         height="19.243155"
         x="54.661484"
         y="14.062176"
         d="M 54.661484,14.062176 H 73.904638 V 33.30533 H 54.661484 Z" />
      <path
         id="lpe_path-effect31"
         style="fill:#c0cff8;fill-opacity:1;stroke-width:0.925568"
         class="powerclip"
         d="M 48.93063,8.2872572 H 79.721279 V 39.077907 H 48.93063 Z m 5.730854,5.7749188 V 33.30533 H 73.904638 V 14.062176 Z" />
    </clipPath>
  </defs>
  <sodipodi:namedview
     id="namedview25"
     pagecolor="#ffffff"
     bordercolor="#000000"
     borderopacity="0.25"
     inkscape:showpageshadow="2"
     inkscape:pageopacity="0.0"
     inkscape:pagecheckerboard="0"
     inkscape:deskcolor="#d1d1d1"
     inkscape:zoom="6.3971067"
     inkscape:cx="49.08469"
     inkscape:cy="68.312133"
     inkscape:window-width="2560"
     inkscape:window-height="1371"
     inkscape:window-x="0"
     inkscape:window-y="0"
     inkscape:window-maximized="1"
     inkscape:current-layer="svg25" />
  <linearGradient
     id="a"
     gradientTransform="matrix(0.192351,0,0,0.14760671,22.005213,71.528516)"
     gradientUnits="userSpaceOnUse"
     x1="10.276156"
     x2="426.276215"
     y1="259.999878"
     y2="259.999878">
    <stop
       offset="0"
       stop-color="#9a9996"
       id="stop1"
       style="stop-color:#ea9022;stop-opacity:1;" />
    <stop
       offset="0.0502156"
       stop-color="#c0bfbc"
       id="stop2"
       style="stop-color:#eaa848;stop-opacity:1;" />
    <stop
       offset="0.100204"
       stop-color="#9a9996"
       id="stop3"
       style="stop-color:#ce7b15;stop-opacity:1;" />
    <stop
       offset="0.90002298"
       stop-color="#9a9996"
       id="stop4"
       style="stop-color:#ea9022;stop-opacity:1;" />
    <stop
       offset="0.95001101"
       stop-color="#c0bfbc"
       id="stop5"
       style="stop-color:#eaa848;stop-opacity:1;" />
    <stop
       offset="1"
       stop-color="#9a9996"
       id="stop6"
       style="stop-color:#ea9022;stop-opacity:1;" />
  </linearGradient>
  <path
     style="fill:#a76620;fill-opacity:1"
     id="rect30"
     width="20.790649"
     height="20.790649"
     x="53.93063"
     y="13.287257"
     mask="none"
     clip-path="url(#clipPath31)"
     inkscape:path-effect="#path-effect31"
     sodipodi:type="rect"
     d="m 53.93063,13.287257 h 20.790649 v 20.79065 H 53.93063 Z"
     transform="matrix(1.5790279,-1.5790279,1.5790279,1.5790279,-74.089304,106.76116)" />
  <path
     d="m 32,59.129533 h 64 c 4.41797,0 8,2.114928 8,4.723416 v 40.149021 c 0,2.60849 -3.58203,4.72342 -8,4.72342 H 32 c -4.417969,0 -8,-2.11493 -8,-4.72342 V 63.852949 c 0,-2.608488 3.582031,-4.723416 8,-4.723416 z m 0,0"
     fill="url(#a)"
     id="path6"
     style="fill:url(#a);stroke-width:0.768392" />
  <path
     d="m 32,42.597582 h 64 c 4.41797,0 8,2.077574 8,4.639991 v 52.199906 c 0,2.562421 -3.58203,4.640001 -8,4.640001 H 32 c -4.417969,0 -8,-2.07758 -8,-4.640001 V 47.237573 c 0,-2.562417 3.582031,-4.639991 8,-4.639991 z m 0,0"
     fill="#deddda"
     id="path7"
     style="stroke-width:0.761576;fill:#ea9022;fill-opacity:1" />
  <path
     d="m 35.868001,46.188255 h 56.405622 c 3.893722,0 7.050701,1.831045 7.050701,4.0894 v 46.005752 c 0,2.258355 -3.156979,4.089403 -7.050701,4.089403 H 35.868001 c -3.893723,0 -7.050703,-1.831048 -7.050703,-4.089403 V 50.277655 c 0,-2.258355 3.15698,-4.0894 7.050703,-4.0894 z m 0,0"
     fill="#deddda"
     id="path7-5"
     style="fill:#16866d;fill-opacity:1;stroke-width:0.671206" />
  <path
     d="M 71.468263,85.92205 V 62.264242 c 0,-1.005128 1.378323,-1.818465 3.081666,-1.818465 h 4.6225 c 1.703343,0 3.081667,0.813337 3.081667,1.818465 V 85.92205 c 0,1.00513 -1.378324,1.818466 -3.081667,1.818466 h -4.6225 c -1.703343,0 -3.081666,-0.813336 -3.081666,-1.818466 z m 0,0"
     fill="#77767b"
     id="path8"
     style="stroke-width:0.591814;fill:#6e6d73;fill-opacity:1" />
  <path
     d="M 82.304506,82.830207 V 59.570656 c 0,-0.988209 -1.217771,-1.787854 -2.722702,-1.787854 H 74.1364 c -1.504932,0 -2.722702,0.799645 -2.722702,1.787854 v 23.259551 c 0,0.98821 1.21777,1.787855 2.722702,1.787855 h 5.445404 c 1.504931,0 2.722702,-0.799645 2.722702,-1.787855 z m 0,0"
     fill="#6fb182"
     id="path9"
     style="fill:#fdac1a;fill-opacity:1;stroke-width:0.551576" />
  <path
     d="m 35.896372,70.032761 v 4.163336 c 0,8.074593 6.497081,14.571675 14.571675,14.571675 8.074595,0 14.571676,-6.497082 14.571676,-14.571675 v -4.163336 z m 0,0"
     fill="#5e5c64"
     id="path14"
     style="stroke-width:2.08166;fill:#6e6d73;fill-opacity:1" />
  <path
     d="m 50.468047,55.461085 c 8.050202,0 14.571676,6.521475 14.571676,14.571676 0,8.050201 -6.521474,14.571675 -14.571676,14.571675 -8.050201,0 -14.571675,-6.521474 -14.571675,-14.571675 0,-8.050201 6.521474,-14.571676 14.571675,-14.571676 z m 0,0"
     fill="#9a9996"
     id="path15"
     style="fill:#fdac1a;fill-opacity:1;stroke-width:2.08166" />
  <path
     d="m 52.697754,50.495682 c 10.492837,0 18.993092,8.500255 18.993092,18.993092 0,10.492836 -8.500255,18.993091 -18.993092,18.993091 -10.492836,0 -18.993091,-8.500255 -18.993091,-18.993091 0,-10.492837 8.500255,-18.993092 18.993091,-18.993092 z m 0,0"
     fill="#9a9996"
     id="path15-6"
     style="fill:#0022b1;fill-opacity:1;stroke-width:2.7133"
     mask="url(#mask29)"
     transform="matrix(0.77302008,0,0,0.77302388,9.6338244,16.379209)" />
  <path
     d="M 84.513978,86.480748 V 70.613699 c 0,-0.674129 1.378323,-1.219625 3.081666,-1.219625 h 4.6225 c 1.703343,0 3.081667,0.545496 3.081667,1.219625 v 15.867049 c 0,0.67413 -1.378324,1.219626 -3.081667,1.219626 h -4.6225 c -1.703343,0 -3.081666,-0.545496 -3.081666,-1.219626 z m 0,0"
     fill="#77767b"
     id="path8-5"
     style="stroke-width:0.48467;fill:#6e6d73;fill-opacity:1" />
  <path
     d="M 95.350221,83.767649 V 70.124587 c 0,-0.579641 -1.217771,-1.048678 -2.722702,-1.048678 h -5.445404 c -1.504932,0 -2.722702,0.469037 -2.722702,1.048678 v 13.643062 c 0,0.579642 1.21777,1.04868 2.722702,1.04868 h 5.445404 c 1.504931,0 2.722702,-0.469038 2.722702,-1.04868 z m 0,0"
     fill="#6fb182"
     id="path9-6"
     style="fill:#27397e;fill-opacity:1;stroke-width:0.422436" />
  <circle
     style="fill:#6e6d73;fill-opacity:1;stroke-width:0.571429"
     id="path31-2"
     cx="64.884483"
     cy="11.729043"
     r="1.8758482" />
  <circle
     style="fill:#27397e;fill-opacity:1;stroke-width:0.571429"
     id="path31"
     cx="64.880119"
     cy="11.062465"
     r="1.8758482" />
</svg>
