<?xml version="1.0" encoding="UTF-8" standalone="no"?>
<svg
   height="128px"
   viewBox="0 0 128 128"
   width="128px"
   version="1.1"
   id="svg25"
   sodipodi:docname="org.counterstats.CounterStats.svg"
   inkscape:version="1.4.2 (ebf0e940d0, 2025-05-08)"
   xmlns:inkscape="http://www.inkscape.org/namespaces/inkscape"
   xmlns:sodipodi="http://sodipodi.sourceforge.net/DTD/sodipodi-0.dtd"
   xmlns="http://www.w3.org/2000/svg"
   xmlns:svg="http://www.w3.org/2000/svg">
  <defs
     id="defs25">
    <inkscape:path-effect
       effect="powerclip"
       message=""
       id="path-effect31"
       is_visible="true"
       lpeversion="1"
       inverse="true"
       flatten="false"
       hide_clip="false" />
    <mask
       maskUnits="userSpaceOnUse"
       id="mask29">
      <rect
         style="fill:#e4bd4c;fill-opacity:1;stroke-width:0.982432"
         id="rect29"
         width="24.981001"
         height="28.6984"
         x="52.705853"
         y="40.807102" />
    </mask>
    <filter
       id="mask-powermask-path-effect31_inverse"
       inkscape:label="filtermask-powermask-path-effect31"
       style="color-interpolation-filters:sRGB"
       height="100"
       width="100"
       x="-50"
       y="-50">
      <feColorMatrix
         id="mask-powermask-path-effect31_primitive1"
         values="1"
         type="saturate"
         result="fbSourceGraphic" />
      <feColorMatrix
         id="mask-powermask-path-effect31_primitive2"
         values="-1 0 0 0 1 0 -1 0 0 1 0 0 -1 0 1 0 0 0 1 0 "
         in="fbSourceGraphic" />
    </filter>
    <clipPath
       clipPathUnits="userSpaceOnUse"
       id="clipPath31">
      <rect
         style="display:none;fill:#c0cff8;fill-opacity:1;stroke-width:0.925568"
         id="rect31"
         width="19.243155"
         height="19.243155"
         x="54.661484"
         y="14.062176"
         d="M 54.661484,14.062176 H 73.904638 V 33.30533 H 54.661484 Z" />
      <path
         id="lpe_path-effect31"
         style="fill:#c0cff8;fill-opacity:1;stroke-width:0.925568"
         class="powerclip"
         d="M 48.93063,8.2872572 H 79.721279 V 39.077907 H 48.93063 Z m 5.730854,5.7749188 V 33.30533 H 73.904638 V 14.062176 Z" />
    </clipPath>
  </defs>
  <sodipodi:namedview
     id="namedview25"
     pagecolor="#ffffff"
     bordercolor="#000000"
     borderopacity="0.25"
     inkscape:showpageshadow="2"
     inkscape:pageopacity="0.0"
     inkscape:pagecheckerboard="0"
     inkscape:deskcolor="#d1d1d1"
     inkscape:zoom="6.3971067"
     inkscape:cx="47.521483"
     inkscape:cy="73.158073"
     inkscape:window-width="2560"
     inkscape:window-height="1371"
     inkscape:window-x="0"
     inkscape:window-y="0"
     inkscape:window-maximized="1"
     inkscape:current-layer="svg25" />
  <linearGradient
     id="a"
     gradientTransform="matrix(0.2328294,0,0,0.17866911,13.167818,78.174279)"
     gradientUnits="userSpaceOnUse"
     x1="10.276156"
     x2="426.276215"
     y1="259.999878"
     y2="259.999878">
    <stop
       offset="0"
       stop-color="#9a9996"
       id="stop1"
       style="stop-color:#ea9022;stop-opacity:1;" />
    <stop
       offset="0.0502156"
       stop-color="#c0bfbc"
       id="stop2"
       style="stop-color:#eaa848;stop-opacity:1;" />
    <stop
       offset="0.100204"
       stop-color="#9a9996"
       id="stop3"
       style="stop-color:#ce7b15;stop-opacity:1;" />
    <stop
       offset="0.90002298"
       stop-color="#9a9996"
       id="stop4"
       style="stop-color:#ea9022;stop-opacity:1;" />
    <stop
       offset="0.95001101"
       stop-color="#c0bfbc"
       id="stop5"
       style="stop-color:#eaa848;stop-opacity:1;" />
    <stop
       offset="1"
       stop-color="#9a9996"
       id="stop6"
       style="stop-color:#ea9022;stop-opacity:1;" />
  </linearGradient>
  <path
     style="fill:#a76620;fill-opacity:1"
     id="rect30"
     width="20.790649"
     height="20.790649"
     x="53.93063"
     y="13.287257"
     mask="none"
     clip-path="url(#clipPath31)"
     inkscape:path-effect="#path-effect31"
     sodipodi:type="rect"
     d="m 53.93063,13.287257 h 20.790649 v 20.79065 H 53.93063 Z"
     transform="matrix(1.911319,-1.911319,1.911319,1.911319,-103.14886,120.82129)" />
  <path
     d="m 25.26591,63.166051 h 77.46818 c 5.34769,0 9.68352,2.559994 9.68352,5.717413 v 48.597996 c 0,3.15742 -4.33583,5.71741 -9.68352,5.71741 H 25.26591 c -5.347687,0 -9.683522,-2.55999 -9.683522,-5.71741 V 68.883464 c 0,-3.157419 4.335835,-5.717413 9.683522,-5.717413 z m 0,0"
     fill="url(#a)"
     id="path6"
     style="fill:url(#a);stroke-width:0.930093" />
  <path
     d="m 25.26591,43.155111 h 77.46818 c 5.34769,0 9.68352,2.514779 9.68352,5.616432 v 63.184867 c 0,3.10166 -4.33583,5.61645 -9.68352,5.61645 H 25.26591 c -5.347687,0 -9.683522,-2.51479 -9.683522,-5.61645 V 48.771543 c 0,-3.101653 4.335835,-5.616432 9.683522,-5.616432 z m 0,0"
     fill="#deddda"
     id="path7"
     style="fill:#ea9022;fill-opacity:1;stroke-width:0.921842" />
  <path
     d="m 29.947895,47.501406 h 68.275638 c 4.713117,0 8.534457,2.216371 8.534457,4.949975 V 108.1386 c 0,2.7336 -3.82134,4.94998 -8.534457,4.94998 H 29.947895 c -4.71312,0 -8.534455,-2.21638 -8.534455,-4.94998 V 52.451381 c 0,-2.733604 3.821335,-4.949975 8.534455,-4.949975 z m 0,0"
     fill="#deddda"
     id="path7-5"
     style="fill:#16866d;fill-opacity:1;stroke-width:0.812455" />
  <path
     d="M 73.039887,95.596793 V 66.960429 c 0,-1.216648 1.668377,-2.201144 3.730172,-2.201144 h 5.595261 c 2.061795,0 3.730173,0.984496 3.730173,2.201144 v 28.636364 c 0,1.21665 -1.668378,2.201145 -3.730173,2.201145 h -5.595261 c -2.061795,0 -3.730172,-0.984495 -3.730172,-2.201145 z m 0,0"
     fill="#77767b"
     id="path8"
     style="fill:#6e6d73;fill-opacity:1;stroke-width:0.716356" />
  <path
     d="M 86.156512,91.854302 V 63.700004 c 0,-1.196168 -1.474039,-2.164091 -3.295668,-2.164091 h -6.591337 c -1.82163,0 -3.295668,0.967923 -3.295668,2.164091 v 28.154298 c 0,1.196169 1.474038,2.164091 3.295668,2.164091 h 6.591337 c 1.821629,0 3.295668,-0.967922 3.295668,-2.164091 z m 0,0"
     fill="#6fb182"
     id="path9"
     style="fill:#fdac1a;fill-opacity:1;stroke-width:0.66765" />
  <path
     d="m 29.982236,76.363757 v 5.03947 c 0,9.773813 7.864329,17.638143 17.638143,17.638143 9.773815,0 17.638144,-7.86433 17.638144,-17.638143 v -5.03947 z m 0,0"
     fill="#5e5c64"
     id="path14"
     style="fill:#6e6d73;fill-opacity:1;stroke-width:2.51973" />
  <path
     d="m 47.620379,58.725613 c 9.744289,0 17.638144,7.893857 17.638144,17.638144 0,9.744288 -7.893855,17.638143 -17.638144,17.638143 -9.744288,0 -17.638143,-7.893855 -17.638143,-17.638143 0,-9.744287 7.893855,-17.638144 17.638143,-17.638144 z m 0,0"
     fill="#9a9996"
     id="path15"
     style="fill:#fdac1a;fill-opacity:1;stroke-width:2.51973" />
  <path
     d="m 52.697754,50.495682 c 10.492837,0 18.993092,8.500255 18.993092,18.993092 0,10.492836 -8.500255,18.993091 -18.993092,18.993091 -10.492836,0 -18.993091,-8.500255 -18.993091,-18.993091 0,-10.492837 8.500255,-18.993092 18.993091,-18.993092 z m 0,0"
     fill="#9a9996"
     id="path15-6"
     style="fill:#0022b1;fill-opacity:1;stroke-width:2.7133"
     mask="url(#mask29)"
     transform="matrix(0.93569466,0,0,0.93569926,-1.8070101,11.419336)" />
  <path
     d="M 88.830946,96.273064 V 77.066948 c 0,-0.815993 1.668377,-1.476283 3.730172,-1.476283 h 5.595261 c 2.061791,0 3.730171,0.66029 3.730171,1.476283 v 19.206116 c 0,0.815994 -1.66838,1.476284 -3.730171,1.476284 h -5.595261 c -2.061795,0 -3.730172,-0.66029 -3.730172,-1.476284 z m 0,0"
     fill="#77767b"
     id="path8-5"
     style="fill:#6e6d73;fill-opacity:1;stroke-width:0.586664" />
  <path
     d="M 101.94757,92.989019 V 76.474907 c 0,-0.701621 -1.47404,-1.269362 -3.295667,-1.269362 h -6.591337 c -1.82163,0 -3.295668,0.567741 -3.295668,1.269362 v 16.514112 c 0,0.701622 1.474038,1.269365 3.295668,1.269365 h 6.591337 c 1.821627,0 3.295667,-0.567743 3.295667,-1.269365 z m 0,0"
     fill="#6fb182"
     id="path9-6"
     style="fill:#27397e;fill-opacity:1;stroke-width:0.511334" />
  <circle
     style="fill:#6e6d73;fill-opacity:1;stroke-width:0.691681"
     id="path31-2"
     cx="65.070618"
     cy="5.7905874"
     r="2.2706022" />
  <circle
     style="fill:#27397e;fill-opacity:1;stroke-width:0.691681"
     id="path31"
     cx="65.065331"
     cy="4.9837341"
     r="2.2706022" />
</svg>
